<svg width="192" height="211" viewBox="0 0 192 211" fill="none" xmlns="http://www.w3.org/2000/svg">
<rect width="192" height="211" fill="white"/>
<path fillRule="evenodd" clipRule="evenodd" d="M71.459 53C71.459 41.9543 62.5047 33 51.459 33C40.4133 33 31.459 41.9543 31.459 53L31.459 165C32.2382 155.965 37.6813 147.994 45.8127 143.98L51.1365 141.352C63.5808 135.209 71.459 122.534 71.459 108.656V53Z" fill="#030303"/>
<path d="M85.9692 95.49C91.5542 90.0501 99.0376 86.998 106.834 86.9805L148.731 86.8862L127.415 108.621L65.1857 170.868C57.2694 178.786 44.3602 178.546 36.7439 170.339C29.4516 162.48 29.7607 150.239 37.4404 142.759L85.9692 95.49Z" fill="#030303"/>
<path d="M169.829 184.674L111.906 117.796L94.6035 135.841C91.9694 138.589 87.8877 141.622 89.5909 145.026C90.2284 146.3 91.4242 147.857 93.4862 149.74C96.6391 152.621 107.673 165.097 115.741 174.322C121.48 180.884 129.757 184.674 138.475 184.674H169.829Z" fill="#030303"/>
<path d="M169.829 184.674L111.906 117.796L94.6035 135.841C91.9694 138.589 87.8877 141.622 89.5909 145.026C90.2284 146.3 91.4242 147.857 93.4862 149.74C96.6391 152.621 107.673 165.097 115.741 174.322C121.48 180.884 129.757 184.674 138.475 184.674H169.829Z" fill="url(#paint0_linear_21_44)"/>
<path d="M84.4634 50.1306C84.4634 43.0411 84.4634 39.4963 86.0154 36.8698C86.9731 35.2493 88.325 33.8974 89.9455 32.9398C92.572 31.3877 96.1168 31.3877 103.206 31.3877H133.787C140.876 31.3877 144.421 31.3877 147.048 32.9398C148.668 33.8974 150.02 35.2493 150.978 36.8698C152.53 39.4963 152.53 43.0411 152.53 50.1306V58.9897C152.53 64.4484 148.105 68.8735 142.646 68.8735H137.87C124.089 68.8735 110.755 73.7679 100.247 82.684L102.493 75.6948C102.779 74.8065 102.922 74.3624 102.976 74.0085C103.344 71.5869 101.692 69.3209 99.2738 68.9305C98.9205 68.8735 98.454 68.8735 97.5209 68.8735C95.7578 68.8735 94.8763 68.8735 94.1364 68.7741C89.1527 68.1043 85.2326 64.1841 84.5628 59.2004C84.4634 58.4606 84.4634 57.579 84.4634 55.8159V50.1306Z" fill="url(#paint1_linear_21_44)"/>
<circle cx="105.18" cy="52.1036" r="2.9594" fill="#F5F5F5"/>
<circle cx="118.003" cy="52.1036" r="2.9594" fill="#F5F5F5"/>
<circle cx="130.828" cy="52.1036" r="2.9594" fill="#F5F5F5"/>
<path d="M31.459 53.2066V64.895V87.8785L33.3765 85.2152C37.3138 79.7468 42.7816 75.5662 49.091 73.2002L60.9007 68.7715C67.1186 66.4398 71.238 60.4956 71.238 53.8548V53.2066C71.238 47.6936 68.9498 42.4279 64.9195 38.6662C57.2778 31.534 45.4192 31.534 37.7775 38.6662C33.7472 42.4279 31.459 47.6936 31.459 53.2066Z" fill="url(#paint2_linear_21_44)"/>
<rect x="31.459" y="138" width="40" height="48" rx="20" fill="#030303"/>
<path d="M80.4008 154.218L80.3232 154.255C80.2628 154.284 80.169 154.332 80.0468 154.397C79.8022 154.527 79.4432 154.727 79.006 155C78.1296 155.548 76.9454 156.385 75.7287 157.53C73.2947 159.822 70.7699 163.31 70.241 168.188L70.1072 169.43L67.5591 169.168L67.6942 167.928C68.304 162.301 71.2234 158.304 73.9486 155.737C75.3112 154.454 76.6355 153.518 77.6225 152.901C78.1168 152.592 78.5291 152.361 78.8221 152.206C78.9685 152.128 79.0858 152.069 79.1686 152.028C79.2098 152.008 79.2424 151.992 79.2662 151.98C79.278 151.975 79.2877 151.97 79.295 151.967L79.3075 151.961C79.3075 151.961 79.3103 151.96 79.8554 153.089L79.31 151.96L80.4696 151.43L80.959 153.089L80.4008 154.218Z" stroke="black" strokeWidth="2"/>
<defs>
<linearGradient id="paint0_linear_21_44" x1="96.459" y1="125.5" x2="161.459" y2="185" gradientUnits="userSpaceOnUse">
<stop stop-opacity="0"/>
<stop offset="1" stop-color="#666666"/>
</linearGradient>
<linearGradient id="paint1_linear_21_44" x1="92.6981" y1="78.8966" x2="164.861" y2="32.8674" gradientUnits="userSpaceOnUse">
<stop stop-color="#030303"/>
<stop offset="1" stop-color="#696969"/>
</linearGradient>
<linearGradient id="paint2_linear_21_44" x1="51.3485" y1="26" x2="51.3485" y2="87.8785" gradientUnits="userSpaceOnUse">
<stop/>
<stop offset="1" stop-color="#666666" stop-opacity="0.2"/>
</linearGradient>
</defs>
</svg>
