<svg width="519" height="160" viewBox="0 0 519 160" fill="none" xmlns="http://www.w3.org/2000/svg">
<path fill-rule="evenodd" clip-rule="evenodd" d="M49.4591 27C49.4591 15.9543 40.5048 7 29.4591 7C18.4134 7 9.45911 15.9543 9.45911 27L9.45911 139C10.2383 129.965 15.6814 121.994 23.8128 117.98L29.1366 115.352C41.581 109.209 49.4591 96.5337 49.4591 82.6555V27Z" fill="#030303"/>
<path d="M63.9694 69.49C69.5543 64.0501 77.0377 60.998 84.8342 60.9805L126.731 60.8862L105.416 82.6214L43.1859 144.868C35.2695 152.786 22.3603 152.546 14.744 144.339C7.45168 136.48 7.76082 124.239 15.4405 116.759L63.9694 69.49Z" fill="#030303"/>
<path d="M147.829 158.674L89.9062 91.7956L72.6037 109.841C69.9695 112.589 65.8878 115.622 67.591 119.026C68.2285 120.3 69.4243 121.857 71.4863 123.74C74.6392 126.621 85.673 139.097 93.741 148.322C99.4801 154.884 107.757 158.674 116.475 158.674H147.829Z" fill="#030303"/>
<path d="M147.829 158.674L89.9062 91.7956L72.6037 109.841C69.9695 112.589 65.8878 115.622 67.591 119.026C68.2285 120.3 69.4243 121.857 71.4863 123.74C74.6392 126.621 85.673 139.097 93.741 148.322C99.4801 154.884 107.757 158.674 116.475 158.674H147.829Z" fill="url(#paint0_linear_1_172)"/>
<path d="M62.4636 24.1306C62.4636 17.0411 62.4636 13.4963 64.0157 10.8698C64.9733 9.24933 66.3253 7.89737 67.9458 6.93976C70.5723 5.3877 74.117 5.3877 81.2065 5.3877H111.787C118.877 5.3877 122.421 5.3877 125.048 6.93976C126.668 7.89737 128.02 9.24933 128.978 10.8698C130.53 13.4963 130.53 17.0411 130.53 24.1306V32.9897C130.53 38.4484 126.105 42.8735 120.646 42.8735H115.87C102.089 42.8735 88.7555 47.7679 78.2471 56.684L80.4937 49.6948C80.7792 48.8065 80.9219 48.3624 80.9757 48.0085C81.3441 45.5869 79.6922 43.3209 77.2741 42.9305C76.9207 42.8735 76.4542 42.8735 75.5212 42.8735C73.7581 42.8735 72.8765 42.8735 72.1367 42.7741C67.153 42.1043 63.2328 38.1841 62.5631 33.2004C62.4636 32.4606 62.4636 31.579 62.4636 29.8159V24.1306Z" fill="url(#paint1_linear_1_172)"/>
<circle cx="83.1795" cy="26.1036" r="2.9594" fill="#F5F5F5"/>
<circle cx="96.0036" cy="26.1036" r="2.9594" fill="#F5F5F5"/>
<circle cx="108.828" cy="26.1036" r="2.9594" fill="#F5F5F5"/>
<path d="M9.45911 27.2066V38.895V61.8785L11.3766 59.2152C15.3139 53.7468 20.7817 49.5662 27.0911 47.2002L38.9008 42.7715C45.1188 40.4398 49.2381 34.4956 49.2381 27.8548V27.2066C49.2381 21.6936 46.9499 16.4279 42.9196 12.6662C35.2779 5.53401 23.4193 5.53401 15.7776 12.6662C11.7473 16.4279 9.45911 21.6936 9.45911 27.2066Z" fill="url(#paint2_linear_1_172)"/>
<rect x="9.45911" y="112" width="40" height="48" rx="20" fill="#030303"/>
<path d="M58.4009 128.218L58.3233 128.255C58.2629 128.284 58.1691 128.332 58.0469 128.397C57.8023 128.527 57.4434 128.727 57.0061 129C56.1297 129.548 54.9455 130.385 53.7288 131.53C51.2948 133.822 48.77 137.31 48.2411 142.188L48.1073 143.43L45.5592 143.168L45.6943 141.928C46.3041 136.301 49.2236 132.304 51.9488 129.737C53.3114 128.454 54.6357 127.518 55.6226 126.901C56.1169 126.592 56.5292 126.361 56.8222 126.206C56.9686 126.128 57.0859 126.069 57.1687 126.028C57.2099 126.008 57.2425 125.992 57.2663 125.98C57.2781 125.975 57.2878 125.97 57.2951 125.967L57.3076 125.961C57.3076 125.961 57.3104 125.96 57.8555 127.089L57.3101 125.96L58.4697 125.43L58.9591 127.089L58.4009 128.218Z" stroke="black" stroke-width="2"/>
<path d="M172.208 140.316C162.872 140.316 155.333 137.387 149.591 131.527C143.887 125.629 141.036 117.23 141.036 106.332C141.036 95.3945 143.887 87.0352 149.591 81.2539C155.333 75.4336 162.872 72.5234 172.208 72.5234C181.583 72.5234 189.122 75.4336 194.825 81.2539C200.567 87.0352 203.438 95.3945 203.438 106.332C203.438 117.23 200.567 125.629 194.825 131.527C189.122 137.387 181.583 140.316 172.208 140.316ZM172.208 80.9023C166.153 80.9023 161.231 83.0312 157.442 87.2891C153.692 91.5078 151.817 97.8359 151.817 106.273C151.817 114.711 153.692 121.098 157.442 125.434C161.231 129.73 166.153 131.879 172.208 131.879C178.302 131.879 183.223 129.73 186.973 125.434C190.762 121.098 192.657 114.711 192.657 106.273C192.657 97.8359 190.762 91.5078 186.973 87.2891C183.223 83.0312 178.302 80.9023 172.208 80.9023ZM222.716 137.328V75.5117C222.716 74.6914 223.106 74.2812 223.887 74.2812H230.509C231.29 74.2812 231.719 74.6914 231.798 75.5117L232.911 82.0742C233.38 81.4102 234.395 80.4141 235.958 79.0859C237.52 77.7188 239.044 76.625 240.528 75.8047C244.356 73.6172 248.809 72.5234 253.887 72.5234C261.973 72.5234 268.594 75.0234 273.751 80.0234C278.907 85.0234 281.485 91.918 281.485 100.707V137.328C281.485 138.109 281.094 138.5 280.313 138.5H271.876C271.094 138.5 270.704 138.109 270.704 137.328V100.707C270.704 94.3789 269.063 89.4961 265.782 86.0586C262.501 82.6211 258.341 80.9023 253.302 80.9023C250.997 80.9023 248.712 81.3516 246.446 82.25C244.219 83.1094 242.364 84.1445 240.88 85.3555C239.395 86.5273 238.087 87.7383 236.954 88.9883C234.649 91.4492 233.497 92.9531 233.497 93.5V137.328C233.497 138.109 233.106 138.5 232.325 138.5H223.887C223.106 138.5 222.716 138.109 222.716 137.328ZM294.317 75.5117C294.2 75.2773 294.161 75.082 294.2 74.9258C294.2 74.4961 294.571 74.2812 295.313 74.2812H303.341C304.122 74.2812 304.727 74.6914 305.157 75.5117L327.364 126.488L349.571 75.5117C349.962 74.7305 350.548 74.3203 351.329 74.2812H359.415C360.157 74.2812 360.528 74.4961 360.528 74.9258C360.528 75.082 360.469 75.2773 360.352 75.5117L334.571 134.926C333.438 137.309 331.837 138.5 329.766 138.5H324.962C322.891 138.5 321.29 137.309 320.157 134.926L294.317 75.5117ZM400.723 140.316C391.387 140.316 383.848 137.387 378.106 131.527C372.403 125.629 369.552 117.23 369.552 106.332C369.552 95.3945 372.403 87.0352 378.106 81.2539C383.848 75.4336 391.387 72.5234 400.723 72.5234C410.098 72.5234 417.637 75.4336 423.341 81.2539C429.083 87.0352 431.954 95.3945 431.954 106.332C431.954 117.23 429.083 125.629 423.341 131.527C417.637 137.387 410.098 140.316 400.723 140.316ZM400.723 80.9023C394.669 80.9023 389.747 83.0312 385.958 87.2891C382.208 91.5078 380.333 97.8359 380.333 106.273C380.333 114.711 382.208 121.098 385.958 125.434C389.747 129.73 394.669 131.879 400.723 131.879C406.817 131.879 411.739 129.73 415.489 125.434C419.278 121.098 421.173 114.711 421.173 106.273C421.173 97.8359 419.278 91.5078 415.489 87.2891C411.739 83.0312 406.817 80.9023 400.723 80.9023ZM477.012 140.316C467.989 140.316 460.626 137.387 454.923 131.527C449.259 125.668 446.427 117.309 446.427 106.449C446.427 95.5508 449.278 87.1719 454.981 81.3125C460.723 75.4531 468.262 72.5234 477.598 72.5234C482.716 72.5234 487.637 73.1289 492.364 74.3398C497.091 75.5117 500.489 76.7031 502.559 77.9141L505.841 79.6719V157.074C505.841 157.855 505.43 158.266 504.61 158.305H496.231C495.45 158.305 495.04 157.895 495.001 157.074V136.684C489.805 139.066 483.809 140.277 477.012 140.316ZM478.829 80.9023C472.188 80.9023 466.915 83.0508 463.009 87.3477C459.141 91.6055 457.208 97.9727 457.208 106.449C457.208 114.926 459.122 121.293 462.95 125.551C466.817 129.77 471.837 131.879 478.009 131.879C484.18 131.879 489.844 130.688 495.001 128.305V84.4766C495.001 84.3984 494.317 84.0859 492.95 83.5391C491.622 82.9922 489.591 82.4258 486.856 81.8398C484.122 81.2148 481.446 80.9023 478.829 80.9023Z" fill="black"/>
<defs>
<linearGradient id="paint0_linear_1_172" x1="74.4591" y1="99.5" x2="139.459" y2="159" gradientUnits="userSpaceOnUse">
<stop stop-opacity="0"/>
<stop offset="1" stop-color="#666666"/>
</linearGradient>
<linearGradient id="paint1_linear_1_172" x1="70.6983" y1="52.8966" x2="142.861" y2="6.8674" gradientUnits="userSpaceOnUse">
<stop stop-color="#030303"/>
<stop offset="1" stop-color="#696969"/>
</linearGradient>
<linearGradient id="paint2_linear_1_172" x1="29.3486" y1="0" x2="29.3486" y2="61.8785" gradientUnits="userSpaceOnUse">
<stop/>
<stop offset="1" stop-color="#666666" stop-opacity="0.2"/>
</linearGradient>
</defs>
</svg>
