<svg width="192" height="211" viewBox="0 0 192 211" fill="none" xmlns="http://www.w3.org/2000/svg">
<rect width="192" height="211" fill="black"/>
<path d="M51.459 33.5C62.2285 33.5 70.959 42.2304 70.959 53V108.655C70.959 122.343 63.1888 134.844 50.915 140.903L45.5918 143.531C38.9239 146.823 34.0314 152.726 31.959 159.703V53C31.959 42.2304 40.6894 33.5 51.459 33.5Z" fill="white" stroke="white"/>
<path d="M127.059 108.271L64.8326 170.514C57.1167 178.232 44.5338 177.998 37.1103 169.998C30.003 162.339 30.3042 150.408 37.7891 143.117L86.3182 95.8482C91.8101 90.4989 99.169 87.4974 106.835 87.4802L147.539 87.3873L127.059 108.271Z" fill="white" stroke="white"/>
<path d="M169.829 184.674L111.906 117.796L94.6035 135.841C91.9694 138.589 87.8877 141.622 89.5909 145.026C90.2284 146.3 91.4242 147.857 93.4862 149.74C96.6391 152.621 107.673 165.097 115.741 174.322C121.48 180.884 129.757 184.674 138.475 184.674H169.829Z" fill="white"/>
<path d="M169.829 184.674L111.906 117.796L94.6035 135.841C91.9694 138.589 87.8877 141.622 89.5909 145.026C90.2284 146.3 91.4242 147.857 93.4862 149.74C96.6391 152.621 107.673 165.097 115.741 174.322C121.48 180.884 129.757 184.674 138.475 184.674H169.829Z" fill="white"/>
<path d="M169.829 184.674L111.906 117.796L94.6035 135.841C91.9694 138.589 87.8877 141.622 89.5909 145.026C90.2284 146.3 91.4242 147.857 93.4862 149.74C96.6391 152.621 107.673 165.097 115.741 174.322C121.48 180.884 129.757 184.674 138.475 184.674H169.829Z" stroke="white"/>
<path d="M103.207 31.9453H133.787C137.342 31.9453 139.97 31.9466 142.04 32.1377C144.1 32.328 145.55 32.7034 146.763 33.4199C148.303 34.3296 149.588 35.6139 150.498 37.1533C151.214 38.3662 151.589 39.8168 151.78 41.8779C151.971 43.947 151.972 46.5756 151.972 50.1309V58.9893C151.972 64.1397 147.796 68.3154 142.646 68.3154H137.87C124.59 68.3155 111.725 72.8192 101.356 81.0557L103.025 75.8652C103.303 75.0008 103.464 74.5025 103.527 74.0928C103.941 71.3685 102.083 68.819 99.3628 68.3799C98.9536 68.3138 98.4295 68.3154 97.521 68.3154C95.7398 68.3154 94.904 68.3139 94.2104 68.2207C89.4761 67.5843 85.752 63.8604 85.1157 59.126C85.0225 58.4325 85.021 57.5972 85.021 55.8164V50.1309C85.021 46.5756 85.0223 43.947 85.2134 41.8779C85.4037 39.8168 85.7789 38.3662 86.4956 37.1533C87.4053 35.614 88.6897 34.3296 90.229 33.4199C91.4419 32.7032 92.8925 32.3281 94.9536 32.1377C97.0227 31.9466 99.6513 31.9453 103.207 31.9453Z" fill="white" stroke="white" strokeWidth="1.11594"/>
<circle cx="105.18" cy="52.1036" r="2.40143" fill="black" stroke="white" strokeWidth="1.11594"/>
<circle cx="118.003" cy="52.1036" r="2.40143" fill="black" stroke="white" strokeWidth="1.11594"/>
<circle cx="130.828" cy="52.1036" r="2.40143" fill="black" stroke="white" strokeWidth="1.11594"/>
<path d="M31.459 53.2066V64.895V87.8785L33.3765 85.2152C37.3138 79.7468 42.7816 75.5662 49.091 73.2002L60.9007 68.7715C67.1186 66.4398 71.238 60.4956 71.238 53.8548V53.2066C71.238 47.6936 68.9498 42.4279 64.9195 38.6662C57.2778 31.534 45.4192 31.534 37.7775 38.6662C33.7472 42.4279 31.459 47.6936 31.459 53.2066Z" fill="white" stroke="white"/>
<rect x="31.959" y="138.5" width="39" height="47" rx="19.5" fill="white" stroke="white"/>
<path d="M80.4008 154.218L80.3232 154.255C80.2628 154.284 80.169 154.332 80.0468 154.397C79.8022 154.527 79.4432 154.727 79.006 155C78.1296 155.548 76.9454 156.385 75.7287 157.53C73.2947 159.822 70.7699 163.31 70.241 168.188L70.1072 169.43L67.5591 169.168L67.6942 167.928C68.304 162.301 71.2234 158.304 73.9486 155.737C75.3112 154.454 76.6355 153.518 77.6225 152.901C78.1168 152.592 78.5291 152.361 78.8221 152.206C78.9685 152.128 79.0858 152.069 79.1686 152.028C79.2098 152.008 79.2424 151.992 79.2662 151.98C79.278 151.975 79.2877 151.97 79.295 151.967L79.3075 151.961C79.3075 151.961 79.3103 151.96 79.8554 153.089L79.31 151.96L80.4696 151.43L80.959 153.089L80.4008 154.218Z" stroke="white" strokeWidth="2"/>
</svg>
